<svg width="32" height="33" viewBox="0 0 32 33" fill="none" xmlns="http://www.w3.org/2000/svg">
<path d="M21.4 16.1536C21.4 13.154 19 10.7543 16 10.7543C13 10.7543 10.6 13.154 10.6 16.1536C10.6 19.1532 13 21.5528 16 21.5528C19 21.5528 21.4 19.1532 21.4 16.1536ZM24.2 16.1536C24.2 20.7529 20.6 24.3524 16 24.3524C11.4 24.3524 7.8 20.7529 7.8 16.1536C7.8 11.5542 11.4 7.95469 16 7.95469C20.6 7.95469 24.2 11.5542 24.2 16.1536ZM26.4 7.55475C26.4 8.75458 25.6 9.55447 24.4 9.55447C23.2 9.55447 22.4 8.75458 22.4 7.55475C22.4 6.35491 23.2 5.55502 24.4 5.55502C25.6 5.55502 26.4 6.55488 26.4 7.55475ZM16 2.95538C13.6 2.95538 8.6 2.7554 6.6 3.55529C5.2 4.15521 4 5.35505 3.6 6.75486C2.8 8.75458 3 13.7539 3 16.1536C3 18.5532 2.8 23.5525 3.6 25.5523C4 26.9521 5.2 28.1519 6.6 28.5519C8.6 29.3518 13.8 29.1518 16 29.1518C18.2 29.1518 23.4 29.3518 25.4 28.5519C26.8 27.9519 27.8 26.9521 28.4 25.5523C29.2 23.3526 29 18.3533 29 16.1536C29 13.9539 29.2 8.75458 28.4 6.75486C28 5.35505 26.8 4.15521 25.4 3.75527C23.4 2.7554 18.4 2.95538 16 2.95538ZM32 16.1536V22.7527C32 25.1523 31.2 27.552 29.4 29.5517C27.6 31.3515 25.2 32.1514 22.6 32.1514H9.4C7 32.1514 4.6 31.3515 2.6 29.5517C1 27.752 0 25.3523 0 22.7527V16.1536V9.55447C0 6.95483 1 4.55516 2.6 2.7554C4.6 1.15562 7 0.155762 9.4 0.155762H22.6C25 0.155762 27.4 0.955652 29.4 2.7554C31 4.55516 32 6.95483 32 9.55447V16.1536Z" fill="white"/>
</svg>
