<svg width="47" height="19" viewBox="0 0 47 19" fill="none" xmlns="http://www.w3.org/2000/svg">
<path d="M8.58606 2.87793C8.03374 3.48706 7.15385 3.96974 6.27543 3.89903C6.15939 3.0778 6.59713 2.1981 7.10244 1.65287C7.65329 1.03151 8.61691 0.585539 9.39838 0.548828C9.49092 1.40677 9.12956 2.24976 8.58753 2.87793H8.58606ZM9.38956 4.06083C8.11306 3.98877 7.01724 4.7393 6.41204 4.7393C5.79363 4.7393 4.86673 4.09618 3.85758 4.11794C2.54876 4.13289 1.32515 4.82496 0.659722 5.93852C-0.725478 8.15341 0.299834 11.4329 1.63068 13.2385C2.28142 14.1305 3.05995 15.1081 4.08673 15.0809C5.05769 15.0442 5.44843 14.4867 6.61916 14.4867C7.80459 14.4867 8.14097 15.0809 9.1751 15.0591C10.2371 15.0442 10.9099 14.1672 11.5606 13.2753C12.3024 12.2623 12.608 11.2698 12.6241 11.2208C12.608 11.1991 10.5662 10.4703 10.5515 8.27442C10.5353 6.43208 12.157 5.5551 12.2261 5.50479C11.3153 4.23079 9.87725 4.09618 9.38809 4.06219L9.38956 4.06083ZM16.7577 1.56721V14.9667H18.9831V10.386H22.0605C24.8677 10.386 26.8419 8.58034 26.8419 5.97388C26.8419 3.36197 24.9073 1.56857 22.1369 1.56857L16.7577 1.56721ZM18.9831 3.3239H21.5464C23.4736 3.3239 24.5768 4.28654 24.5768 5.97931C24.5768 7.67209 23.4736 8.64289 21.5317 8.64289H18.9831V3.3239ZM30.8947 15.0659C32.2946 15.0659 33.5872 14.4078 34.1777 13.3582H34.2247V14.9667H36.2812V8.29482C36.2812 6.36954 34.6302 5.11729 32.0816 5.11729C29.7254 5.11729 27.9803 6.38449 27.9201 8.11942H29.9164C30.0853 7.29139 30.8961 6.75296 32.0213 6.75296C33.383 6.75296 34.141 7.34713 34.141 8.43894V9.17452L31.3721 9.33088C28.7853 9.47908 27.3927 10.4635 27.3927 12.1848C27.3927 13.9197 28.8323 15.0673 30.8961 15.0673L30.8947 15.0659ZM31.4999 13.4792C30.313 13.4792 29.5565 12.9476 29.5565 12.1345C29.5565 11.2915 30.2836 10.7952 31.6673 10.7164L34.1395 10.575V11.3323C34.1395 12.5873 32.9996 13.4792 31.4911 13.4792H31.4999ZM39.0281 18.6133C41.1919 18.6133 42.2113 17.8342 43.0985 15.4901L47 5.25054H44.7437L42.1276 13.1597H42.0806L39.4644 5.25054H37.1391L40.9039 15.002L40.7042 15.5962C40.359 16.5955 39.8096 16.983 38.8298 16.983C38.6535 16.983 38.3172 16.9627 38.1791 16.9491V18.5575C38.3084 18.5915 38.8607 18.6065 39.0208 18.6065L39.0281 18.6133Z" fill="black"/>
</svg>
