<svg width="72" height="21" viewBox="0 0 72 21" fill="none" xmlns="http://www.w3.org/2000/svg">
<path d="M52.3397 1.45901C50.6665 0.909892 48.8978 0.634343 47.1169 0.645336C41.3578 0.645336 37.2904 3.25816 37.2616 7.00883C37.2256 9.7643 40.152 11.3171 42.3656 12.2377C44.6369 13.1843 45.3964 13.7808 45.3892 14.6269C45.3748 15.9138 43.5751 16.4974 41.9013 16.4974C39.6013 16.4974 38.3451 16.2088 36.4121 15.4859L35.6958 15.1845L34.8788 19.5024C36.279 20.0276 38.8022 20.4782 41.4082 20.5171C47.5309 20.5171 51.5335 17.9205 51.5803 13.9299C51.6307 11.7288 50.0469 10.0658 46.7138 8.69129C44.6873 7.79981 43.4311 7.20334 43.4311 6.2989C43.4311 5.49819 44.5073 4.64238 46.757 4.64238C48.2542 4.60975 49.7422 4.86274 51.1231 5.38473L51.6631 5.60193L52.4801 1.42983L52.3397 1.45901ZM67.2847 0.995441H62.7854C61.3852 0.995441 60.3306 1.34231 59.7186 2.59361L51.0655 20.248H57.1882L58.412 17.3532L65.8845 17.3597C66.0609 18.0372 66.6008 20.248 66.6008 20.248H72L67.2847 0.995441ZM28.9793 0.833355H34.814L31.1641 20.0957H25.3366L28.9793 0.826872V0.833355ZM14.1675 11.45L14.7722 14.1244L20.4737 0.995441H26.654L17.4718 20.2221H11.3059L6.26666 3.94216C6.18504 3.67372 5.99337 3.44317 5.73034 3.29706C3.91406 2.45207 1.98958 1.81082 0 1.38769L0.079188 0.982472H9.47018C10.7444 1.02786 11.7702 1.38769 12.1122 2.61306L14.1639 11.4597V11.45H14.1675ZM60.0858 13.4145L62.411 8.02674C62.3822 8.08509 62.8898 6.91482 63.1849 6.19192L63.5845 7.85493L64.9343 13.4112H60.0822V13.4145H60.0858Z" fill="black"/>
</svg>
