<svg width="80" height="46" viewBox="0 0 80 46" fill="none" xmlns="http://www.w3.org/2000/svg">
<path d="M3.72248 7.24232e-05C1.66728 7.24232e-05 0 1.49804 0 3.34631V41.8159C0 43.6638 1.66752 45.1621 3.72248 45.1621H76.2775C78.3327 45.1621 80 43.6641 80 41.8159V3.34623C80 1.49826 78.3325 0 76.2775 0H3.7224L3.72248 7.24232e-05ZM26.2325 5.43634C30.7989 5.43634 34.9928 6.86449 38.2849 9.25002C35.5152 11.4778 33.4492 14.4048 32.43 17.7224H34.0275C34.9683 14.9855 36.6773 12.5488 38.93 10.6164C41.1826 12.5488 42.8916 14.9855 43.8324 17.7224H45.455C44.4216 14.4223 42.3528 11.5128 39.585 9.2995C42.8834 6.88369 47.0938 5.43627 51.68 5.43627C62.2632 5.43627 70.8424 13.1492 70.8424 22.6642C70.8424 32.1792 62.2632 39.8922 51.68 39.8922C47.0176 39.8922 42.7424 38.3962 39.42 35.9076C42.392 33.5834 44.583 30.4676 45.585 26.9229H44.0224C43.1327 29.898 41.342 32.5441 38.9299 34.6133C36.5179 32.5441 34.7296 29.898 33.8399 26.9229H32.3524C33.3602 30.4162 35.5226 33.4884 38.4499 35.7908C35.1336 38.2486 30.8752 39.7258 26.2324 39.7258C15.6492 39.7258 7.06999 32.05 7.06999 22.5811C7.06999 13.1122 15.6492 5.43634 26.2325 5.43634ZM50.2424 17.5471C47.94 17.5471 45.7 19.3566 45.7 22.7541C45.7 25.007 46.9099 26.4937 49.29 26.4937C49.9629 26.4939 51.035 26.2465 51.035 26.2465L51.3899 24.2778C51.3899 24.2778 50.4116 24.7228 49.74 24.7228C48.3252 24.7228 47.7575 23.7447 47.7575 22.6935C47.7575 20.561 48.9748 19.3876 50.33 19.3876C51.3462 19.3876 52.1624 19.9045 52.1624 19.9045L52.4875 17.9898C52.4875 17.9898 51.2792 17.5471 50.2424 17.5471H50.2424ZM69.5999 17.7134L67.5975 17.7179L67.1675 20.0866C67.1675 20.0866 66.4147 19.1674 65.2375 19.1674C63.4071 19.1674 61.8824 21.122 61.8824 23.3699C61.8824 24.8209 62.6939 26.2442 64.3575 26.2442C65.5541 26.2442 66.2175 25.5049 66.2175 25.5049L66.1299 26.1363H68.075L69.5999 17.7134ZM12.2449 17.7381L10.65 26.1813H12.5725L13.7875 19.8147L13.9675 26.1813H15.3425L17.9075 19.8147L16.77 26.1813H18.8125L20.3875 17.7381H17.2275L15.26 22.9182L15.1575 17.7382H12.245L12.2449 17.7381ZM32.33 18.2865C32.2865 18.3256 31.1675 24.1264 31.1675 24.8329C31.1675 25.8789 31.8197 26.3462 32.7375 26.3386C33.3951 26.3336 33.9044 26.1851 34.14 26.1229C34.1646 26.1169 34.2124 26.1049 34.2124 26.1049L34.46 24.5947C34.3254 24.5947 34.1272 24.6464 33.9524 24.6464C33.2673 24.6464 33.1913 24.3187 33.2349 24.0755L33.7875 20.9945H34.83L35.0824 19.3247H34.1L34.3 18.2865H32.33ZM55.5675 19.136C54.2256 19.136 53.1975 19.5337 53.1975 19.5337L52.9124 21.0844C52.9124 21.0844 53.7616 20.7675 55.045 20.7675C55.7736 20.7675 56.3074 20.8424 56.3074 21.3878C56.3074 21.719 56.2424 21.8417 56.2424 21.8417C56.2424 21.8417 55.6663 21.7968 55.3999 21.7968C53.7078 21.7968 51.93 22.4634 51.93 24.4688C51.93 26.0489 53.0971 26.4105 53.82 26.4105C55.2006 26.4105 55.7959 25.586 55.8275 25.5835L55.7624 26.2712H57.485L58.255 21.3091C58.2552 19.2036 56.2603 19.1359 55.5675 19.1359V19.136ZM23.2549 19.145C21.9082 19.145 20.8749 19.5427 20.8749 19.5427L20.59 21.0934C20.59 21.0934 21.442 20.7765 22.73 20.7765C23.4613 20.7765 23.9975 20.8517 23.9975 21.3967C23.9975 21.7278 23.9325 21.8507 23.9325 21.8507C23.9325 21.8507 23.3546 21.8058 23.0875 21.8058C21.3889 21.8058 19.605 22.4714 19.605 24.4756C19.605 26.0548 20.7745 26.4173 21.5 26.4173C22.8857 26.4173 23.4832 25.5927 23.515 25.5903L23.45 26.2779H25.18L25.9525 21.3181C25.9525 19.2139 23.9503 19.1449 23.2549 19.1449V19.145ZM29.3649 19.145C27.9188 19.145 26.45 19.6697 26.45 21.462C26.45 23.4927 28.8975 23.2875 28.8975 24.1429C28.8975 24.7139 28.2145 24.761 27.6875 24.761C26.7755 24.761 25.9554 24.4778 25.9525 24.4913L25.69 26.042C25.7372 26.0551 26.245 26.2599 27.885 26.2599C28.3253 26.2599 30.8425 26.3605 30.8425 24.0036C30.8425 21.8002 28.5125 22.237 28.5125 21.3518C28.5125 20.9111 28.8908 20.772 29.5849 20.772C29.8606 20.772 30.9225 20.8507 30.9225 20.8507L31.1675 19.2843C31.1675 19.2845 30.4823 19.145 29.365 19.145H29.3649ZM38.4049 19.145C36.3953 19.1453 34.9075 21.0879 34.9075 23.2823C34.9075 25.815 36.7716 26.4173 38.36 26.4173C39.826 26.4173 40.4724 26.1229 40.4724 26.1229L40.8224 24.3947C40.8224 24.3947 39.7072 24.8352 38.7 24.8352C36.5539 24.8352 36.93 23.3991 36.93 23.3991H40.9924C40.9924 23.3991 41.255 22.2386 41.255 21.7653C41.255 20.5845 40.5994 19.145 38.405 19.145H38.4049ZM45.6825 19.2191C44.7772 19.2191 44.1049 20.3136 44.1049 20.3136L44.2849 19.309H42.4049L41.1425 26.2443H43.22C43.8084 23.2827 43.9158 20.878 45.32 21.3181C45.5657 20.1718 45.8042 19.729 46.0724 19.2438C46.0724 19.2438 45.9464 19.2191 45.6824 19.2191H45.6825ZM62.5149 19.2191C61.6096 19.2191 60.9375 20.3136 60.9375 20.3136L61.1175 19.309H59.2375L57.9749 26.2443H60.0499C60.6386 23.2827 60.7487 20.878 62.1524 21.3181C62.3987 20.1718 62.6369 19.729 62.905 19.2438C62.905 19.2438 62.7789 19.2191 62.515 19.2191H62.5149ZM38.3949 20.7091C39.5363 20.7091 39.3275 21.8672 39.3275 21.9608H37.08C37.08 21.8413 37.2926 20.7091 38.395 20.7091H38.3949ZM65.5525 20.8439C66.2789 20.8437 66.6525 21.2848 66.6525 22.3226C66.6525 23.2643 66.1242 24.5228 65.0299 24.5228C64.3037 24.5228 63.9624 23.9836 63.9624 23.1384C63.9624 21.7564 64.6658 20.8439 65.5524 20.8439H65.5525ZM55.5699 23.2036C55.8663 23.2039 55.9275 23.2298 55.9775 23.2418C55.9703 23.2408 55.9689 23.242 55.9975 23.2463C56.035 23.5552 55.7899 25.0037 54.6049 25.0037C53.9939 25.0037 53.8375 24.567 53.8375 24.3093C53.8375 23.8067 54.1285 23.2036 55.5699 23.2036ZM23.2575 23.2103C23.5941 23.2107 23.6308 23.2445 23.6875 23.2531C23.7251 23.5618 23.479 25.0082 22.29 25.0082C21.6766 25.0082 21.5175 24.5735 21.5175 24.316C21.5175 23.8138 21.8103 23.2103 23.2575 23.2103Z" fill="black"/>
</svg>
