<svg width="12" height="12" viewBox="0 0 12 12" fill="none" xmlns="http://www.w3.org/2000/svg">
<path d="M7.11898 0.768857C6.30568 0.768115 5.51043 1.00834 4.83384 1.45916C4.15724 1.90997 3.6297 2.55111 3.31795 3.30146C3.0062 4.05182 2.92424 4.87768 3.08245 5.67458C3.24067 6.47147 3.63193 7.20358 4.20676 7.77831C4.78159 8.35303 5.51415 8.74454 6.31177 8.90331C7.10939 9.06208 7.93623 8.98097 8.68769 8.67024C9.43916 8.35952 10.0815 7.83314 10.5334 7.15769C10.9853 6.48225 11.2265 5.68809 11.2265 4.87568C11.2216 3.78865 10.7874 2.74749 10.0182 1.97848C9.2491 1.20948 8.2072 0.774775 7.11898 0.768857ZM7.11898 0C8.08436 0 9.02805 0.285953 9.83073 0.8217C10.6334 1.35745 11.259 2.11892 11.6285 3.00984C11.9979 3.90075 12.0945 4.88109 11.9062 5.82687C11.7179 6.77266 11.253 7.64143 10.5704 8.3233C9.88776 9.00518 9.01805 9.46954 8.07122 9.65767C7.1244 9.8458 6.14299 9.74924 5.2511 9.38021C4.35921 9.01119 3.5969 8.38626 3.06057 7.58446C2.52424 6.78266 2.23797 5.83999 2.23797 4.87568C2.23797 3.58257 2.75222 2.34242 3.66759 1.42805C4.58295 0.513686 5.82446 0 7.11898 0Z" fill="#2D3538"/>
<path d="M0.109107 11.3603L2.87627 8.57739L3.40942 9.10622L0.642263 11.8891C0.607502 11.9241 0.566186 11.9519 0.520674 11.9709C0.475163 11.9899 0.426347 11.9998 0.377013 12C0.327679 12.0001 0.278795 11.9906 0.233149 11.9719C0.187504 11.9532 0.145992 11.9257 0.110985 11.891C0.0759771 11.8563 0.0481591 11.815 0.0291188 11.7695C0.0100784 11.7241 0.000187635 11.6753 1.33514e-05 11.626C-0.000160933 11.5767 0.00938368 11.5279 0.0281017 11.4823C0.0468199 11.4367 0.0743461 11.3952 0.109107 11.3603Z" fill="#2D3538"/>
</svg>
