<svg width="10" height="13" viewBox="0 0 10 13" fill="none" xmlns="http://www.w3.org/2000/svg">
<path fill-rule="evenodd" clip-rule="evenodd" d="M9.28571 3.53571H0.714286V10.6071C0.714286 10.8155 0.789541 11.0154 0.923495 11.1627C1.05745 11.3101 1.23913 11.3929 1.42857 11.3929H8.57143C8.76087 11.3929 8.94255 11.3101 9.0765 11.1627C9.21046 11.0154 9.28571 10.8155 9.28571 10.6071V3.53571ZM0 2.75V10.6071C0 11.0239 0.15051 11.4236 0.418419 11.7183C0.686328 12.013 1.04969 12.1786 1.42857 12.1786H8.57143C8.95031 12.1786 9.31367 12.013 9.58158 11.7183C9.84949 11.4236 10 11.0239 10 10.6071V2.75H0Z" fill="#2D3538"/>
<path d="M5 0.785714C4.5264 0.785714 4.0722 0.992665 3.73731 1.36104C3.40242 1.72942 3.21429 2.22904 3.21429 2.75H2.5C2.5 2.02065 2.76339 1.32118 3.23223 0.805456C3.70107 0.289731 4.33696 0 5 0C5.66304 0 6.29893 0.289731 6.76777 0.805456C7.23661 1.32118 7.5 2.02065 7.5 2.75H6.78571C6.78571 2.22904 6.59758 1.72942 6.26269 1.36104C5.9278 0.992665 5.4736 0.785714 5 0.785714Z" fill="#2D3538"/>
</svg>
