<svg width="35" height="36" viewBox="0 0 35 36" fill="none" xmlns="http://www.w3.org/2000/svg">
<path d="M30.3516 3.79297C31.8555 5.11458 32.9264 7.21094 33.5645 10.082C34.2025 12.9076 34.2708 16.4167 33.7695 20.6094C33.6328 21.6576 33.4049 22.6146 33.0859 23.4805C32.8125 24.3464 32.4935 25.0983 32.1289 25.7363C31.7643 26.3288 31.3314 26.8757 30.8301 27.377C30.3743 27.8783 29.9186 28.2884 29.4629 28.6074C29.0527 28.8809 28.597 29.1315 28.0957 29.3594C27.5944 29.5872 27.1842 29.7695 26.8652 29.9062C26.5462 29.9974 26.1816 30.0885 25.7715 30.1797C25.4069 30.2708 25.2018 30.3164 25.1562 30.3164C24.8372 30.4531 24.2904 30.5898 23.5156 30.7266C22.7409 30.8633 21.5104 31 19.8242 31.1367C18.138 31.319 16.4518 31.319 14.7656 31.1367C13.8086 32.1849 13.125 32.9368 12.7148 33.3926C12.5781 33.5293 12.3958 33.7116 12.168 33.9395C11.9401 34.2129 11.7806 34.3952 11.6895 34.4863C11.5983 34.5775 11.4388 34.7142 11.2109 34.8965C11.0286 35.1243 10.8919 35.2383 10.8008 35.2383C10.7096 35.2383 10.5501 35.2839 10.3223 35.375C10.0944 35.4661 9.9349 35.4434 9.84375 35.3066C9.66146 35.2611 9.50195 35.1699 9.36523 35.0332C9.22852 34.8965 9.13737 34.737 9.0918 34.5547C9.04622 34.418 9.00065 34.2585 8.95508 34.0762C8.95508 33.9395 8.95508 33.8255 8.95508 33.7344L8.88672 33.5977L8.95508 30.043H8.88672C7.92969 29.7695 7.04102 29.4049 6.2207 28.9492C5.40039 28.4479 4.7168 27.901 4.16992 27.3086C3.66862 26.7161 3.1901 26.0781 2.73438 25.3945C2.32422 24.6654 2.00521 23.9362 1.77734 23.207C1.59505 22.4779 1.41276 21.7259 1.23047 20.9512C1.09375 20.1764 1.0026 19.4245 0.957031 18.6953C0.957031 17.9661 0.934245 17.2598 0.888672 16.5762C0.888672 15.8926 0.911458 15.2773 0.957031 14.7305C1.04818 9.76302 2.1875 6.18555 4.375 3.99805C5.74219 2.76758 7.5651 1.85612 9.84375 1.26367C12.1224 0.671224 14.082 0.375 15.7227 0.375H18.1152C20.485 0.420573 22.627 0.69401 24.541 1.19531C26.5007 1.65104 27.8451 2.10677 28.5742 2.5625C29.3034 2.97266 29.8958 3.38281 30.3516 3.79297ZM31.3086 19.9941C31.7643 16.4395 31.7188 13.4316 31.1719 10.9707C30.6706 8.46419 29.7819 6.66406 28.5059 5.57031C28.1868 5.2513 27.6855 4.90951 27.002 4.54492C26.3184 4.18034 25.1335 3.81576 23.4473 3.45117C21.8066 3.08659 19.9837 2.88151 17.9785 2.83594C17.7962 2.83594 17.5 2.83594 17.0898 2.83594C16.7253 2.83594 16.0189 2.88151 14.9707 2.97266C13.9681 3.01823 12.9883 3.13216 12.0312 3.31445C11.1198 3.45117 10.1172 3.7474 9.02344 4.20312C7.92969 4.61328 7.04102 5.16016 6.35742 5.84375C4.48893 7.66667 3.50911 10.6517 3.41797 14.7988C3.46354 15.6191 3.46354 16.5078 3.41797 17.4648C3.3724 18.3763 3.46354 19.3789 3.69141 20.4727C3.91927 21.5208 4.21549 22.5234 4.58008 23.4805C4.99023 24.3919 5.65104 25.2578 6.5625 26.0781C7.47396 26.8529 8.59049 27.4225 9.91211 27.7871C9.86654 31.3874 9.84375 33.347 9.84375 33.666C9.84375 33.985 9.9349 34.1673 10.1172 34.2129C10.2995 34.304 10.4818 34.2357 10.6641 34.0078L15.3125 28.6074C16.7253 28.6986 18.1608 28.6986 19.6191 28.6074C21.0775 28.4707 22.1484 28.334 22.832 28.1973C23.5156 28.0605 23.9941 27.9466 24.2676 27.8555C24.3132 27.8555 24.5182 27.8099 24.8828 27.7188C25.293 27.6276 25.6348 27.5365 25.9082 27.4453C26.2272 27.3086 26.6374 27.1263 27.1387 26.8984C27.64 26.6706 28.0729 26.3743 28.4375 26.0098C28.8477 25.5996 29.2578 25.1439 29.668 24.6426C30.0781 24.0957 30.4199 23.4349 30.6934 22.6602C30.9668 21.8398 31.1719 20.9512 31.3086 19.9941ZM21.8066 14.457C21.8066 14.776 21.6471 14.9355 21.3281 14.9355C21.0547 14.9355 20.918 14.7988 20.918 14.5254C20.8268 13.0671 20.0749 12.2923 18.6621 12.2012C18.4798 12.2012 18.3431 12.1328 18.252 11.9961C18.2064 11.8138 18.2292 11.6543 18.3203 11.5176C18.4115 11.3809 18.5482 11.3125 18.7305 11.3125C20.6901 11.4036 21.7155 12.4518 21.8066 14.457ZM23.1738 15.2773C23.2194 13.7734 22.7865 12.5202 21.875 11.5176C20.9635 10.515 19.6647 9.94531 17.9785 9.80859C17.7962 9.80859 17.6823 9.74023 17.6367 9.60352C17.5911 9.42122 17.5911 9.26172 17.6367 9.125C17.7279 8.98828 17.8646 8.91992 18.0469 8.91992C19.9609 9.05664 21.4421 9.71745 22.4902 10.9023C23.584 12.0872 24.1081 13.5456 24.0625 15.2773C24.0625 15.4596 23.9941 15.5964 23.8574 15.6875C23.7207 15.7331 23.5612 15.7331 23.3789 15.6875C23.2422 15.5964 23.1738 15.4596 23.1738 15.2773ZM26.3867 16.166C26.3867 16.3483 26.3184 16.485 26.1816 16.5762C26.0449 16.6217 25.8854 16.6217 25.7031 16.5762C25.5664 16.485 25.498 16.3483 25.498 16.166C25.498 13.4772 24.7005 11.3809 23.1055 9.87695C21.556 8.32747 19.5964 7.55273 17.2266 7.55273C16.9531 7.55273 16.8164 7.41602 16.8164 7.14258C16.8164 6.82357 16.9531 6.66406 17.2266 6.66406C19.8698 6.66406 22.0573 7.52995 23.7891 9.26172C25.5208 10.9479 26.3867 13.2493 26.3867 16.166ZM25.6348 22.8652C25.179 23.64 24.6322 24.278 23.9941 24.7793C23.3561 25.235 22.7181 25.349 22.0801 25.1211C21.3053 24.8932 20.1888 24.3919 18.7305 23.6172C17.3177 22.8424 16.11 22.0677 15.1074 21.293C14.0137 20.4271 13.0339 19.4473 12.168 18.3535C11.4388 17.3965 10.7552 16.3483 10.1172 15.209C9.66146 14.4342 9.27409 13.7279 8.95508 13.0898C8.68164 12.4518 8.49935 11.9961 8.4082 11.7227L8.33984 11.3809C8.11198 10.7428 8.22591 10.1048 8.68164 9.4668C9.18294 8.82878 9.82096 8.2819 10.5957 7.82617C11.2337 7.50716 11.7806 7.59831 12.2363 8.09961C12.7832 8.7832 13.1934 9.28451 13.4668 9.60352C13.7858 10.0592 14.1276 10.6061 14.4922 11.2441C14.9023 12.0189 14.8112 12.6341 14.2188 13.0898L13.3984 13.7051C13.2617 13.7962 13.1706 13.9329 13.125 14.1152C13.0794 14.252 13.0566 14.3887 13.0566 14.5254V14.6621C13.1022 14.7988 13.1478 14.9811 13.1934 15.209C13.2845 15.3913 13.4668 15.7786 13.7402 16.3711C14.0592 16.918 14.401 17.4421 14.7656 17.9434C15.1758 18.3991 15.7227 18.8776 16.4062 19.3789C17.1354 19.8802 17.9329 20.2448 18.7988 20.4727C19.209 20.4727 19.528 20.3359 19.7559 20.0625L20.4395 19.2422C20.8952 18.6497 21.4876 18.5586 22.2168 18.9688C23.4928 19.6979 24.541 20.4499 25.3613 21.2246C25.8626 21.6803 25.9538 22.2272 25.6348 22.8652Z" fill="black"/>
</svg>
