<svg width="31" height="28" viewBox="0 0 31 28" fill="none" xmlns="http://www.w3.org/2000/svg">
<path d="M30.625 3.14258L25.9766 24.8809C25.612 26.4303 24.7689 26.8405 23.4473 26.1113L16.4062 20.916L12.9883 24.1973C12.5326 24.653 12.054 24.8809 11.5527 24.8809L12.0996 17.7031L25.1562 5.94531C25.4753 5.6263 25.4753 5.44401 25.1562 5.39844C24.8828 5.30729 24.5866 5.37565 24.2676 5.60352L8.13477 15.7891L1.16211 13.6016C0.38737 13.3737 0.0227865 13.0319 0.0683594 12.5762C0.113932 12.1204 0.592448 11.7331 1.50391 11.4141L28.6426 0.886719C29.3262 0.658854 29.873 0.75 30.2832 1.16016C30.6934 1.52474 30.8073 2.18555 30.625 3.14258Z" fill="black"/>
</svg>
