<svg width="31" height="32" viewBox="0 0 31 32" fill="none" xmlns="http://www.w3.org/2000/svg">
<path d="M26.0449 5.00586C29.0983 8.05924 30.625 11.6367 30.625 15.7383C30.625 19.931 29.1211 23.5085 26.1133 26.4707C23.1055 29.4329 19.5052 30.9141 15.3125 30.9141C12.7148 30.9141 10.2995 30.2988 8.06641 29.0684L0 31.1875L2.1875 23.3262C0.820312 21.002 0.136719 18.4727 0.136719 15.7383C0.136719 11.5456 1.61784 7.9681 4.58008 5.00586C7.54232 2.04362 11.1198 0.5625 15.3125 0.5625C19.5052 0.5625 23.0827 2.04362 26.0449 5.00586ZM15.3125 28.3848C18.776 28.3848 21.7611 27.1543 24.2676 24.6934C26.7741 22.1868 28.0273 19.2018 28.0273 15.7383C28.0729 12.3659 26.7969 9.40365 24.1992 6.85156C21.7383 4.39062 18.776 3.16016 15.3125 3.16016C11.849 3.16016 8.86393 4.39062 6.35742 6.85156C3.89648 9.3125 2.66602 12.2747 2.66602 15.7383C2.66602 18.1536 3.32682 20.3867 4.64844 22.4375L4.92188 22.916L3.62305 27.5645L8.4082 26.334L8.88672 26.6074C10.8464 27.7923 12.9883 28.3848 15.3125 28.3848ZM22.2168 18.8828C22.6725 19.1107 22.9232 19.2702 22.9688 19.3613C23.1055 19.6348 23.0143 20.25 22.6953 21.207C22.5586 21.5716 22.194 21.959 21.6016 22.3691C21.0547 22.7337 20.5762 22.9388 20.166 22.9844C18.9811 23.1667 17.4544 22.8477 15.5859 22.0273C13.3529 21.0703 11.2109 19.1562 9.16016 16.2852C8.11198 14.8724 7.58789 13.5736 7.58789 12.3887C7.58789 11.2493 8.02083 10.1784 8.88672 9.17578C9.20573 8.90234 9.54753 8.76562 9.91211 8.76562C10.2767 8.76562 10.5273 8.76562 10.6641 8.76562C11.0742 8.76562 11.3477 8.9707 11.4844 9.38086C12.2591 11.2493 12.6465 12.1836 12.6465 12.1836C12.7832 12.457 12.806 12.6849 12.7148 12.8672C12.5326 13.2773 12.3047 13.6419 12.0312 13.9609C11.7578 14.2344 11.5983 14.3939 11.5527 14.4395C11.5072 14.485 11.5299 14.6445 11.6211 14.918C12.2591 16.1029 12.9427 16.9915 13.6719 17.584C14.4466 18.1764 15.472 18.7917 16.748 19.4297C17.1126 19.612 17.3861 19.5892 17.5684 19.3613C18.1608 18.6777 18.571 18.1764 18.7988 17.8574C18.9811 17.584 19.2546 17.5156 19.6191 17.6523C19.9837 17.7891 20.8496 18.1992 22.2168 18.8828Z" fill="black"/>
</svg>
