<svg width="31" height="32" viewBox="0 0 31 32" fill="none" xmlns="http://www.w3.org/2000/svg">
<path d="M9.77539 10.3379C11.3249 8.78841 13.1934 8.01367 15.3809 8.01367C17.5684 8.01367 19.4141 8.78841 20.918 10.3379C22.4674 11.8418 23.2422 13.6875 23.2422 15.875C23.2422 18.0625 22.4674 19.931 20.918 21.4805C19.4141 22.9844 17.5684 23.7363 15.3809 23.7363C13.1934 23.7363 11.3249 22.9844 9.77539 21.4805C8.27148 19.931 7.51953 18.0625 7.51953 15.875C7.51953 13.6875 8.27148 11.8418 9.77539 10.3379ZM11.7578 19.498C12.7604 20.5007 13.9681 21.002 15.3809 21.002C16.7936 21.002 18.0013 20.5007 19.0039 19.498C20.0065 18.4954 20.5078 17.2878 20.5078 15.875C20.5078 14.4622 20.0065 13.2546 19.0039 12.252C18.0013 11.2493 16.7936 10.748 15.3809 10.748C13.9681 10.748 12.7604 11.2493 11.7578 12.252C10.7552 13.2546 10.2539 14.4622 10.2539 15.875C10.2539 17.2878 10.7552 18.4954 11.7578 19.498ZM24.8145 6.44141C25.179 6.76042 25.3613 7.17057 25.3613 7.67188C25.3613 8.17318 25.179 8.60612 24.8145 8.9707C24.4954 9.33529 24.0853 9.51758 23.584 9.51758C23.0827 9.51758 22.6497 9.33529 22.2852 8.9707C21.9206 8.60612 21.7383 8.17318 21.7383 7.67188C21.7383 7.17057 21.9206 6.76042 22.2852 6.44141C22.6497 6.07682 23.0827 5.89453 23.584 5.89453C24.0853 5.89453 24.4954 6.07682 24.8145 6.44141ZM30.625 9.58594C30.6706 10.8164 30.6934 12.9128 30.6934 15.875C30.6934 18.8372 30.6706 20.9336 30.625 22.1641C30.4883 24.944 29.6452 27.1087 28.0957 28.6582C26.5918 30.1621 24.4499 30.9596 21.6699 31.0508C20.4395 31.1419 18.3431 31.1875 15.3809 31.1875C12.4186 31.1875 10.3223 31.1419 9.0918 31.0508C6.31185 30.9141 4.16992 30.0938 2.66602 28.5898C2.07357 28.043 1.59505 27.4049 1.23047 26.6758C0.865885 25.9466 0.592448 25.2402 0.410156 24.5566C0.273438 23.873 0.205078 23.0755 0.205078 22.1641C0.113932 20.9336 0.0683594 18.8372 0.0683594 15.875C0.0683594 12.9128 0.113932 10.7936 0.205078 9.51758C0.341797 6.7832 1.16211 4.66406 2.66602 3.16016C4.16992 1.61068 6.31185 0.767578 9.0918 0.630859C10.3223 0.585286 12.4186 0.5625 15.3809 0.5625C18.3431 0.5625 20.4395 0.585286 21.6699 0.630859C24.4499 0.767578 26.5918 1.61068 28.0957 3.16016C29.6452 4.66406 30.4883 6.80599 30.625 9.58594ZM27.3438 24.8984C27.4805 24.5339 27.5944 24.0781 27.6855 23.5312C27.7767 22.9388 27.8451 22.2552 27.8906 21.4805C27.9362 20.6602 27.959 19.9993 27.959 19.498C27.959 18.9967 27.959 18.2904 27.959 17.3789C27.959 16.4674 27.959 15.9661 27.959 15.875C27.959 15.7383 27.959 15.237 27.959 14.3711C27.959 13.4596 27.959 12.7533 27.959 12.252C27.959 11.7507 27.9362 11.1126 27.8906 10.3379C27.8451 9.51758 27.7767 8.83398 27.6855 8.28711C27.5944 7.69466 27.4805 7.21615 27.3438 6.85156C26.7969 5.4388 25.8171 4.45898 24.4043 3.91211C24.0397 3.77539 23.5612 3.66146 22.9688 3.57031C22.4219 3.47917 21.7383 3.41081 20.918 3.36523C20.1432 3.31966 19.5052 3.29688 19.0039 3.29688C18.5482 3.29688 17.8418 3.29688 16.8848 3.29688C15.9733 3.29688 15.472 3.29688 15.3809 3.29688C15.2897 3.29688 14.7884 3.29688 13.877 3.29688C12.9655 3.29688 12.2591 3.29688 11.7578 3.29688C11.2565 3.29688 10.5957 3.31966 9.77539 3.36523C9.00065 3.41081 8.31706 3.47917 7.72461 3.57031C7.17773 3.66146 6.72201 3.77539 6.35742 3.91211C4.94466 4.45898 3.96484 5.4388 3.41797 6.85156C3.28125 7.21615 3.16732 7.69466 3.07617 8.28711C2.98503 8.83398 2.91667 9.51758 2.87109 10.3379C2.82552 11.1126 2.80273 11.7507 2.80273 12.252C2.80273 12.7077 2.80273 13.4141 2.80273 14.3711C2.80273 15.2826 2.80273 15.7839 2.80273 15.875C2.80273 16.0573 2.80273 16.4902 2.80273 17.1738C2.80273 17.8118 2.80273 18.3587 2.80273 18.8145C2.80273 19.2246 2.80273 19.7715 2.80273 20.4551C2.84831 21.1387 2.89388 21.7311 2.93945 22.2324C2.98503 22.6882 3.05339 23.1667 3.14453 23.668C3.23568 24.1693 3.32682 24.5794 3.41797 24.8984C4.01042 26.3112 4.99023 27.291 6.35742 27.8379C6.72201 27.9746 7.17773 28.0885 7.72461 28.1797C8.31706 28.2708 9.00065 28.3392 9.77539 28.3848C10.5957 28.4303 11.2337 28.4531 11.6895 28.4531C12.1908 28.4531 12.8971 28.4531 13.8086 28.4531C14.7656 28.4531 15.2897 28.4531 15.3809 28.4531C15.5176 28.4531 16.0189 28.4531 16.8848 28.4531C17.7962 28.4531 18.5026 28.4531 19.0039 28.4531C19.5052 28.4531 20.1432 28.4303 20.918 28.3848C21.7383 28.3392 22.4219 28.2708 22.9688 28.1797C23.5612 28.0885 24.0397 27.9746 24.4043 27.8379C25.8171 27.2454 26.7969 26.2656 27.3438 24.8984Z" fill="black"/>
</svg>
